# xmcd
#
# Track frame offsets:
#	182
#	11807
#	22982
#	35287
#	46942
#	57437
#	70155
#	85965
#	109175
#	123817
#	134547
#	145727
#	155255
#	165325
#	174037
#	182807
#	196497
#	213127
#	224440
#	237490
#	250922
#	270082
#	284950
#	293257
#	301372
#	317365
#	336630
#
# Disc length: 4735 seconds
#
# Revision: 6
# Processed by: cddbd v1.5.2PL0 Copyright (c) Steve Scherf et al.
# Submitted via: audiograbber 1.83.01
#
DISCID=80127d1b
DTITLE=Bobby Darin - The Bobby Darin Collection -  The Folk and Country Years  (C
DTITLE=D4) 
DYEAR=1995
DGENRE=Oldies
TTITLE0=Things
TTITLE1=You're The Reason I'm Living
TTITLE2=(I Heard That) Lonesome Whistle
TTITLE3=Sally Was A Good Old Girl
TTITLE4=18 Yellow Roses
TTITLE5=Walking In The Shadow Of Love
TTITLE6=Work Song
TTITLE7=I'm On My Way, Great God (Live)
TTITLE8=Blowin' In The Wind
TTITLE9=If I Were A Carpenter
TTITLE10=The Girl That Stood Beside Me
TTITLE11=Reason To Believe
TTITLE12=Lovin' You
TTITLE13=The Lady Came From Baltimore
TTITLE14=I Am
TTITLE15=Darling Be Home Soon
TTITLE16=Back Street Girl
TTITLE17=I'm Going To Love You
TTITLE18=Long Time Movin'
TTITLE19=Long Line Rider
TTITLE20=In Memoriam
TTITLE21=Me and Mr. Hohner
TTITLE22=Song For A Dollar
TTITLE23=Sweet Reasons
TTITLE24=I'll Be Your Baby Tonight  (Live)
TTITLE25=Simple Song Of Freedom  (Demo)
TTITLE26=Simple Song Of Freedom  (Live)
EXTD=
EXTT0=
EXTT1=
EXTT2=
EXTT3=
EXTT4=
EXTT5=
EXTT6=
EXTT7=
EXTT8=
EXTT9=
EXTT10=
EXTT11=
EXTT12=
EXTT13=
EXTT14=
EXTT15=
EXTT16=
EXTT17=
EXTT18=
EXTT19=
EXTT20=
EXTT21=
EXTT22=
EXTT23=
EXTT24=
EXTT25=
EXTT26=
PLAYORDER=
